<svg width="128" height="128" viewBox="0 0 128 128" fill="none" xmlns="http://www.w3.org/2000/svg" role="img" aria-labelledby="title desc">
  <title id="title">Faust OS ermine logo</title>
  <desc id="desc">A clean white ermine mark inspired by a vintage postage stamp.</desc>
  <rect width="128" height="128" rx="28" fill="#050506"/>
  <path fill="#F7F2E8" d="M84.8 12.7c10.4-1.6 20 4.8 23.8 14.1 1.1 2.8 2.7 3.9 5.6 4.2 3.3.4 5.7 2.3 6.6 5.6.5 1.7-.1 3.5-1.6 4.5-5.4 3.6-10.5 2.4-15.2-1-2.9-2.1-5-2.3-8.1-.4-9.1 5.6-17.8 3.4-25.8-2.3-3-2.1-4.7-2.1-7.3.6C51.4 50 42.2 63.7 36.8 79.5c-2.5 7.4-3.8 15-4.4 22.8-.4 4.6-2.9 7.5-6.9 9.3-4.3 2-8.6 3.8-12.8 5.9-2.1 1-4.2.9-5.8-.9-1.6-1.8-1.4-3.9-.2-5.8 3-4.9 6.1-9.7 9.4-14.3 1.8-2.5 2.7-5 2.5-8.1-1.1-20 4.2-38.2 16.1-54.3C46.6 18 62.8 8.7 84.8 12.7Z"/>
  <path fill="#E8DDC9" d="M67.2 37.4c6.9 4.9 15.8 6.2 23.7 3.1-11.9 7.1-24.3 6.3-32.7-2.3 3-3.1 5.3-3.3 9-.8ZM35.5 80.1c-2.4 10.9-2.8 21.4-1.7 31.7-2.5-2.1-3.9-5-3.5-9.4.6-7.9 1.8-15.3 5.2-22.3Z"/>
  <path fill="#F7F2E8" d="M59.7 55.9c-6.7 10.5-10.5 22-11.5 34.2-.5 5.9 2.5 10.1 8.2 11.7 3.5 1 7.1 1.6 10.7 2.3 2.2.4 3.8 1.6 4.3 3.9.4 2.3-.7 4-2.6 5.1-4.5 2.6-9.1 3.1-13.8 1-8.7-3.8-14.7-10.2-17.9-19.1-1.2-3.2-.9-6.4.2-9.6 3.6-10.4 8.6-20 15.5-28.6 1.9-2.4 4.2-3.3 6.9-.9Z"/>
  <path fill="#181210" d="M104.3 34.7c-.6 2.5-2 4.4-4.5 5.2-2.3.7-4.6.4-6.6-1-1.6-1.2-1.4-3.6.4-4.4 2.5-1.1 5.1-2 7.8-2.6 1.8-.4 3.4 1 2.9 2.8ZM21 109.8c-2.8 1.3-5.6 2.5-8.4 3.8l10.3-16.2c2.8 4.4 2.3 10.1-1.9 12.4Z"/>
  <path stroke="#8A7A63" stroke-width="3" stroke-linecap="round" d="M79.4 22.7c7.9-2.1 14.5-.4 19.8 5.2M76.2 30.2c4.8 3.4 9.9 4.3 15.2 2.7M52.6 55.2c-8 11.6-13.3 24-15.8 37.1M28.3 93.8c-4.1-14.7-.9-31.2 9.6-49.4"/>
  <path stroke="#B8A78E" stroke-width="2" stroke-linecap="round" d="M62.3 44.1c-7 7.6-12.4 16.1-16.1 25.5M24.2 104.2c-3.7 1.5-7.1 3-10.3 4.7M92.9 19.4c4.3 2 7.4 5.1 9.2 9.2"/>
</svg>
